<mxfile host="app.diagrams.net" modified="2024-03-11T23:25:20.957Z" agent="Mozilla/5.0 (Windows NT 10.0; Win64; x64) AppleWebKit/537.36 (KHTML, like Gecko) Chrome/122.0.0.0 Safari/537.36" etag="8y5gWn2dmAETOHdDAgQe" version="24.0.4" type="device">
  <diagram name="PÃ¡gina-1" id="IcvX4e38wgD4cAT0BMnc">
    <mxGraphModel dx="1085" dy="1963" grid="1" gridSize="10" guides="1" tooltips="1" connect="1" arrows="1" fold="1" page="1" pageScale="1" pageWidth="827" pageHeight="1169" math="0" shadow="0">
      <root>
        <mxCell id="0" />
        <mxCell id="1" parent="0" />
        <mxCell id="O5lqoKW_XCnzk66ACHIb-5" style="edgeStyle=orthogonalEdgeStyle;rounded=0;orthogonalLoop=1;jettySize=auto;html=1;" parent="1" source="TFXVlqvpkV60Es4itQm_-2" target="O5lqoKW_XCnzk66ACHIb-1" edge="1">
          <mxGeometry relative="1" as="geometry" />
        </mxCell>
        <mxCell id="O5lqoKW_XCnzk66ACHIb-6" value="POST /api?fullURL=ABCD" style="edgeLabel;html=1;align=center;verticalAlign=middle;resizable=0;points=[];" parent="O5lqoKW_XCnzk66ACHIb-5" vertex="1" connectable="0">
          <mxGeometry x="0.026" y="4" relative="1" as="geometry">
            <mxPoint as="offset" />
          </mxGeometry>
        </mxCell>
        <mxCell id="O5lqoKW_XCnzk66ACHIb-7" style="edgeStyle=orthogonalEdgeStyle;rounded=0;orthogonalLoop=1;jettySize=auto;html=1;" parent="1" edge="1">
          <mxGeometry relative="1" as="geometry">
            <mxPoint x="390" y="120" as="sourcePoint" />
            <mxPoint x="280" y="280" as="targetPoint" />
            <Array as="points">
              <mxPoint x="400" y="120" />
              <mxPoint x="400" y="170" />
              <mxPoint x="280" y="170" />
            </Array>
          </mxGeometry>
        </mxCell>
        <mxCell id="O5lqoKW_XCnzk66ACHIb-8" value="DELETE /api?shortKey=ABCD" style="edgeLabel;html=1;align=center;verticalAlign=middle;resizable=0;points=[];" parent="O5lqoKW_XCnzk66ACHIb-7" vertex="1" connectable="0">
          <mxGeometry y="4" relative="1" as="geometry">
            <mxPoint as="offset" />
          </mxGeometry>
        </mxCell>
        <mxCell id="O5lqoKW_XCnzk66ACHIb-10" style="edgeStyle=orthogonalEdgeStyle;rounded=0;orthogonalLoop=1;jettySize=auto;html=1;" parent="1" source="TFXVlqvpkV60Es4itQm_-2" target="O5lqoKW_XCnzk66ACHIb-3" edge="1">
          <mxGeometry relative="1" as="geometry">
            <Array as="points">
              <mxPoint x="580" y="170" />
            </Array>
          </mxGeometry>
        </mxCell>
        <mxCell id="O5lqoKW_XCnzk66ACHIb-12" value="GET/api?shortKey=ABCD" style="edgeLabel;html=1;align=center;verticalAlign=middle;resizable=0;points=[];" parent="O5lqoKW_XCnzk66ACHIb-10" vertex="1" connectable="0">
          <mxGeometry x="-0.2203" relative="1" as="geometry">
            <mxPoint as="offset" />
          </mxGeometry>
        </mxCell>
        <mxCell id="O5lqoKW_XCnzk66ACHIb-13" style="edgeStyle=orthogonalEdgeStyle;rounded=0;orthogonalLoop=1;jettySize=auto;html=1;" parent="1" source="TFXVlqvpkV60Es4itQm_-2" target="O5lqoKW_XCnzk66ACHIb-4" edge="1">
          <mxGeometry relative="1" as="geometry" />
        </mxCell>
        <mxCell id="O5lqoKW_XCnzk66ACHIb-14" value="Get /{shortKey}" style="edgeLabel;html=1;align=center;verticalAlign=middle;resizable=0;points=[];" parent="O5lqoKW_XCnzk66ACHIb-13" vertex="1" connectable="0">
          <mxGeometry x="-0.0732" y="-1" relative="1" as="geometry">
            <mxPoint as="offset" />
          </mxGeometry>
        </mxCell>
        <mxCell id="0A7X22STuvGUrSSBMzb--2" style="edgeStyle=orthogonalEdgeStyle;rounded=0;orthogonalLoop=1;jettySize=auto;html=1;" edge="1" parent="1" source="TFXVlqvpkV60Es4itQm_-2" target="0A7X22STuvGUrSSBMzb--1">
          <mxGeometry relative="1" as="geometry">
            <Array as="points">
              <mxPoint x="867" y="100" />
            </Array>
          </mxGeometry>
        </mxCell>
        <mxCell id="0A7X22STuvGUrSSBMzb--3" value="Valdiate Token" style="edgeLabel;html=1;align=center;verticalAlign=middle;resizable=0;points=[];" vertex="1" connectable="0" parent="0A7X22STuvGUrSSBMzb--2">
          <mxGeometry x="0.1009" relative="1" as="geometry">
            <mxPoint as="offset" />
          </mxGeometry>
        </mxCell>
        <mxCell id="TFXVlqvpkV60Es4itQm_-2" value="Amazon API Gateway" style="sketch=0;outlineConnect=0;fontColor=#232F3E;gradientColor=none;strokeColor=#ffffff;fillColor=#232F3E;dashed=0;verticalLabelPosition=middle;verticalAlign=bottom;align=center;html=1;whiteSpace=wrap;fontSize=10;fontStyle=1;spacing=3;shape=mxgraph.aws4.productIcon;prIcon=mxgraph.aws4.api_gateway;" parent="1" vertex="1">
          <mxGeometry x="374" y="60" width="80" height="110" as="geometry" />
        </mxCell>
        <mxCell id="TFXVlqvpkV60Es4itQm_-4" value="Amazon DynamoDB" style="sketch=0;outlineConnect=0;fontColor=#232F3E;gradientColor=none;strokeColor=#ffffff;fillColor=#232F3E;dashed=0;verticalLabelPosition=middle;verticalAlign=bottom;align=center;html=1;whiteSpace=wrap;fontSize=10;fontStyle=1;spacing=3;shape=mxgraph.aws4.productIcon;prIcon=mxgraph.aws4.dynamodb;" parent="1" vertex="1">
          <mxGeometry x="360" y="420" width="80" height="110" as="geometry" />
        </mxCell>
        <mxCell id="O5lqoKW_XCnzk66ACHIb-15" style="edgeStyle=orthogonalEdgeStyle;rounded=0;orthogonalLoop=1;jettySize=auto;html=1;" parent="1" source="O5lqoKW_XCnzk66ACHIb-1" target="TFXVlqvpkV60Es4itQm_-4" edge="1">
          <mxGeometry relative="1" as="geometry">
            <Array as="points">
              <mxPoint x="90" y="470" />
            </Array>
          </mxGeometry>
        </mxCell>
        <mxCell id="O5lqoKW_XCnzk66ACHIb-28" style="edgeStyle=orthogonalEdgeStyle;rounded=0;orthogonalLoop=1;jettySize=auto;html=1;" parent="1" source="O5lqoKW_XCnzk66ACHIb-1" target="O5lqoKW_XCnzk66ACHIb-23" edge="1">
          <mxGeometry relative="1" as="geometry">
            <Array as="points">
              <mxPoint x="30" y="335" />
              <mxPoint x="30" y="-170" />
            </Array>
          </mxGeometry>
        </mxCell>
        <mxCell id="O5lqoKW_XCnzk66ACHIb-1" value="AWS Lambda&lt;br&gt;Create" style="sketch=0;outlineConnect=0;fontColor=#232F3E;gradientColor=none;strokeColor=#ffffff;fillColor=#232F3E;dashed=0;verticalLabelPosition=middle;verticalAlign=bottom;align=center;html=1;whiteSpace=wrap;fontSize=10;fontStyle=1;spacing=3;shape=mxgraph.aws4.productIcon;prIcon=mxgraph.aws4.lambda;" parent="1" vertex="1">
          <mxGeometry x="50" y="280" width="80" height="110" as="geometry" />
        </mxCell>
        <mxCell id="O5lqoKW_XCnzk66ACHIb-16" style="edgeStyle=orthogonalEdgeStyle;rounded=0;orthogonalLoop=1;jettySize=auto;html=1;" parent="1" source="O5lqoKW_XCnzk66ACHIb-2" target="TFXVlqvpkV60Es4itQm_-4" edge="1">
          <mxGeometry relative="1" as="geometry">
            <Array as="points">
              <mxPoint x="380" y="335" />
            </Array>
          </mxGeometry>
        </mxCell>
        <mxCell id="O5lqoKW_XCnzk66ACHIb-29" style="edgeStyle=orthogonalEdgeStyle;rounded=0;orthogonalLoop=1;jettySize=auto;html=1;" parent="1" source="O5lqoKW_XCnzk66ACHIb-2" target="O5lqoKW_XCnzk66ACHIb-23" edge="1">
          <mxGeometry relative="1" as="geometry">
            <Array as="points">
              <mxPoint x="210" y="335" />
            </Array>
          </mxGeometry>
        </mxCell>
        <mxCell id="O5lqoKW_XCnzk66ACHIb-2" value="AWS Lambda&lt;br&gt;Delete" style="sketch=0;outlineConnect=0;fontColor=#232F3E;gradientColor=none;strokeColor=#ffffff;fillColor=#232F3E;dashed=0;verticalLabelPosition=middle;verticalAlign=bottom;align=center;html=1;whiteSpace=wrap;fontSize=10;fontStyle=1;spacing=3;shape=mxgraph.aws4.productIcon;prIcon=mxgraph.aws4.lambda;" parent="1" vertex="1">
          <mxGeometry x="220" y="280" width="80" height="110" as="geometry" />
        </mxCell>
        <mxCell id="O5lqoKW_XCnzk66ACHIb-17" style="edgeStyle=orthogonalEdgeStyle;rounded=0;orthogonalLoop=1;jettySize=auto;html=1;" parent="1" source="O5lqoKW_XCnzk66ACHIb-3" target="TFXVlqvpkV60Es4itQm_-4" edge="1">
          <mxGeometry relative="1" as="geometry">
            <Array as="points">
              <mxPoint x="420" y="335" />
            </Array>
          </mxGeometry>
        </mxCell>
        <mxCell id="O5lqoKW_XCnzk66ACHIb-3" value="AWS Lambda&lt;br&gt;GET" style="sketch=0;outlineConnect=0;fontColor=#232F3E;gradientColor=none;strokeColor=#ffffff;fillColor=#232F3E;dashed=0;verticalLabelPosition=middle;verticalAlign=bottom;align=center;html=1;whiteSpace=wrap;fontSize=10;fontStyle=1;spacing=3;shape=mxgraph.aws4.productIcon;prIcon=mxgraph.aws4.lambda;" parent="1" vertex="1">
          <mxGeometry x="540" y="280" width="80" height="110" as="geometry" />
        </mxCell>
        <mxCell id="O5lqoKW_XCnzk66ACHIb-18" style="edgeStyle=orthogonalEdgeStyle;rounded=0;orthogonalLoop=1;jettySize=auto;html=1;" parent="1" source="O5lqoKW_XCnzk66ACHIb-4" target="TFXVlqvpkV60Es4itQm_-4" edge="1">
          <mxGeometry relative="1" as="geometry">
            <Array as="points">
              <mxPoint x="740" y="470" />
            </Array>
          </mxGeometry>
        </mxCell>
        <mxCell id="O5lqoKW_XCnzk66ACHIb-4" value="AWS Lambda&lt;br&gt;Redirect" style="sketch=0;outlineConnect=0;fontColor=#232F3E;gradientColor=none;strokeColor=#ffffff;fillColor=#232F3E;dashed=0;verticalLabelPosition=middle;verticalAlign=bottom;align=center;html=1;whiteSpace=wrap;fontSize=10;fontStyle=1;spacing=3;shape=mxgraph.aws4.productIcon;prIcon=mxgraph.aws4.lambda;" parent="1" vertex="1">
          <mxGeometry x="700" y="280" width="80" height="110" as="geometry" />
        </mxCell>
        <mxCell id="O5lqoKW_XCnzk66ACHIb-20" style="edgeStyle=orthogonalEdgeStyle;rounded=0;orthogonalLoop=1;jettySize=auto;html=1;" parent="1" source="O5lqoKW_XCnzk66ACHIb-19" target="TFXVlqvpkV60Es4itQm_-2" edge="1">
          <mxGeometry relative="1" as="geometry" />
        </mxCell>
        <mxCell id="O5lqoKW_XCnzk66ACHIb-27" value="/api" style="edgeLabel;html=1;align=center;verticalAlign=middle;resizable=0;points=[];" parent="O5lqoKW_XCnzk66ACHIb-20" vertex="1" connectable="0">
          <mxGeometry x="-0.2125" y="-1" relative="1" as="geometry">
            <mxPoint as="offset" />
          </mxGeometry>
        </mxCell>
        <mxCell id="O5lqoKW_XCnzk66ACHIb-25" style="edgeStyle=orthogonalEdgeStyle;rounded=0;orthogonalLoop=1;jettySize=auto;html=1;" parent="1" source="O5lqoKW_XCnzk66ACHIb-19" target="O5lqoKW_XCnzk66ACHIb-23" edge="1">
          <mxGeometry relative="1" as="geometry" />
        </mxCell>
        <mxCell id="O5lqoKW_XCnzk66ACHIb-26" value="/{shortKey}&lt;div&gt;&lt;br&gt;&lt;/div&gt;" style="edgeLabel;html=1;align=center;verticalAlign=middle;resizable=0;points=[];" parent="O5lqoKW_XCnzk66ACHIb-25" vertex="1" connectable="0">
          <mxGeometry x="0.2715" y="-1" relative="1" as="geometry">
            <mxPoint as="offset" />
          </mxGeometry>
        </mxCell>
        <mxCell id="O5lqoKW_XCnzk66ACHIb-19" value="Amazon Cloudfront&lt;div&gt;&lt;br&gt;&lt;/div&gt;" style="sketch=0;outlineConnect=0;fontColor=#232F3E;gradientColor=none;strokeColor=#ffffff;fillColor=#232F3E;dashed=0;verticalLabelPosition=middle;verticalAlign=bottom;align=center;html=1;whiteSpace=wrap;fontSize=10;fontStyle=1;spacing=3;shape=mxgraph.aws4.productIcon;prIcon=mxgraph.aws4.cloudfront;" parent="1" vertex="1">
          <mxGeometry x="374" y="-210" width="80" height="110" as="geometry" />
        </mxCell>
        <mxCell id="O5lqoKW_XCnzk66ACHIb-23" value="Cloudfunction&lt;br&gt;And Key value store" style="sketch=0;outlineConnect=0;fontColor=#232F3E;gradientColor=none;strokeColor=#232F3E;fillColor=#ffffff;dashed=0;verticalLabelPosition=bottom;verticalAlign=top;align=center;html=1;fontSize=12;fontStyle=0;aspect=fixed;shape=mxgraph.aws4.resourceIcon;resIcon=mxgraph.aws4.db_on_instance;" parent="1" vertex="1">
          <mxGeometry x="160" y="-200" width="60" height="60" as="geometry" />
        </mxCell>
        <mxCell id="O5lqoKW_XCnzk66ACHIb-31" style="edgeStyle=orthogonalEdgeStyle;rounded=0;orthogonalLoop=1;jettySize=auto;html=1;" parent="1" source="O5lqoKW_XCnzk66ACHIb-30" target="O5lqoKW_XCnzk66ACHIb-19" edge="1">
          <mxGeometry relative="1" as="geometry" />
        </mxCell>
        <mxCell id="O5lqoKW_XCnzk66ACHIb-32" style="edgeStyle=orthogonalEdgeStyle;rounded=0;orthogonalLoop=1;jettySize=auto;html=1;" parent="1" source="O5lqoKW_XCnzk66ACHIb-30" target="TFXVlqvpkV60Es4itQm_-2" edge="1">
          <mxGeometry relative="1" as="geometry">
            <Array as="points">
              <mxPoint x="610" y="-360" />
              <mxPoint x="610" y="80" />
            </Array>
          </mxGeometry>
        </mxCell>
        <mxCell id="0A7X22STuvGUrSSBMzb--4" style="edgeStyle=orthogonalEdgeStyle;rounded=0;orthogonalLoop=1;jettySize=auto;html=1;" edge="1" parent="1" source="O5lqoKW_XCnzk66ACHIb-30" target="0A7X22STuvGUrSSBMzb--1">
          <mxGeometry relative="1" as="geometry">
            <Array as="points">
              <mxPoint x="867" y="-400" />
            </Array>
          </mxGeometry>
        </mxCell>
        <mxCell id="0A7X22STuvGUrSSBMzb--5" value="Authenticate" style="edgeLabel;html=1;align=center;verticalAlign=middle;resizable=0;points=[];" vertex="1" connectable="0" parent="0A7X22STuvGUrSSBMzb--4">
          <mxGeometry x="-0.3907" y="4" relative="1" as="geometry">
            <mxPoint as="offset" />
          </mxGeometry>
        </mxCell>
        <mxCell id="O5lqoKW_XCnzk66ACHIb-30" value="Users" style="sketch=0;outlineConnect=0;fontColor=#232F3E;gradientColor=none;fillColor=#232F3D;strokeColor=none;dashed=0;verticalLabelPosition=bottom;verticalAlign=top;align=center;html=1;fontSize=12;fontStyle=0;aspect=fixed;pointerEvents=1;shape=mxgraph.aws4.users;" parent="1" vertex="1">
          <mxGeometry x="375" y="-420" width="78" height="78" as="geometry" />
        </mxCell>
        <mxCell id="O5lqoKW_XCnzk66ACHIb-33" value="Optional" style="fillColor=none;strokeColor=#147EBA;dashed=1;verticalAlign=top;fontStyle=0;fontColor=#147EBA;whiteSpace=wrap;html=1;" parent="1" vertex="1">
          <mxGeometry x="50" y="-290" width="890" height="280" as="geometry" />
        </mxCell>
        <mxCell id="0A7X22STuvGUrSSBMzb--1" value="Amazon Cognito" style="sketch=0;outlineConnect=0;fontColor=#232F3E;gradientColor=none;strokeColor=#ffffff;fillColor=#232F3E;dashed=0;verticalLabelPosition=middle;verticalAlign=bottom;align=center;html=1;whiteSpace=wrap;fontSize=10;fontStyle=1;spacing=3;shape=mxgraph.aws4.productIcon;prIcon=mxgraph.aws4.cognito;" vertex="1" parent="1">
          <mxGeometry x="827" y="-210" width="80" height="110" as="geometry" />
        </mxCell>
      </root>
    </mxGraphModel>
  </diagram>
</mxfile>
